<?xml version="1.0" encoding="UTF-8" standalone="no"?>
<!-- Created with Inkscape (http://www.inkscape.org/) -->

<svg
   width="24"
   height="24"
   viewBox="0 0 6.3499998 6.3500002"
   version="1.1"
   id="svg5"
   inkscape:version="1.1.2 (0a00cf5339, 2022-02-04)"
   sodipodi:docname="icon_src.svg"
   xmlns:inkscape="http://www.inkscape.org/namespaces/inkscape"
   xmlns:sodipodi="http://sodipodi.sourceforge.net/DTD/sodipodi-0.dtd"
   xmlns:xlink="http://www.w3.org/1999/xlink"
   xmlns="http://www.w3.org/2000/svg"
   xmlns:svg="http://www.w3.org/2000/svg">
  <sodipodi:namedview
     id="namedview7"
     pagecolor="#ffffff"
     bordercolor="#666666"
     borderopacity="1.0"
     inkscape:pageshadow="2"
     inkscape:pageopacity="0.0"
     inkscape:pagecheckerboard="0"
     inkscape:document-units="px"
     showgrid="true"
     width="24px"
     units="px"
     inkscape:zoom="22.627417"
     inkscape:cx="5.3253979"
     inkscape:cy="12.661631"
     inkscape:window-width="2560"
     inkscape:window-height="1404"
     inkscape:window-x="1920"
     inkscape:window-y="0"
     inkscape:window-maximized="1"
     inkscape:current-layer="layer1"
     inkscape:snap-object-midpoints="true">
    <inkscape:grid
       type="xygrid"
       id="grid9" />
  </sodipodi:namedview>
  <defs
     id="defs2">
    <linearGradient
       inkscape:collect="always"
       id="linearGradient49340">
      <stop
         style="stop-color:#a3ccaa;stop-opacity:1"
         offset="0"
         id="stop49336" />
      <stop
         style="stop-color:#fca5a5;stop-opacity:1"
         offset="1"
         id="stop49338" />
    </linearGradient>
    <linearGradient
       inkscape:collect="always"
       xlink:href="#linearGradient49340"
       id="linearGradient49344"
       x1="0.79374999"
       y1="1.3229166"
       x2="5.5562501"
       y2="5.0270834"
       gradientUnits="userSpaceOnUse" />
  </defs>
  <g
     inkscape:label="Layer 1"
     inkscape:groupmode="layer"
     id="layer1">
    <path
       id="path42683"
       style="fill:none;stroke:url(#linearGradient49344);stroke-width:0.52916667;stroke-linecap:round;stroke-linejoin:round;stroke-miterlimit:4;stroke-dasharray:none;stroke-opacity:1"
       d="M 3.7268644,4.755852 4.755852,3.7268643 4.475219,3.4462313 M 2.6365316,4.9986612 c 0.3120626,0.51 0.8666117,0.8213222 1.46451,0.8221721 C 5.0508579,5.820837 5.820837,5.0508579 5.8208333,4.1010416 5.8206327,3.5026941 5.5094502,2.9474583 4.9991779,2.6349813 M 1.7014222,2.4138718 H 2.7964943 M 1.6538104,2.8921451 c 0,-0.9565467 0,-1.4348201 0.5951479,-1.4348201 0.595148,0 0.595148,0.4782734 0.595148,1.4348201 M 3.9687431,2.2489583 A 1.719785,1.719785 0 0 1 2.2489581,3.9687433 1.719785,1.719785 0 0 1 0.52917314,2.2489583 1.719785,1.719785 0 0 1 2.2489581,0.52917337 1.719785,1.719785 0 0 1 3.9687431,2.2489583 Z" />
    <circle
       style="fill:none;fill-rule:evenodd;stroke:#000000;stroke-width:0.52918;stroke-linecap:round;stroke-miterlimit:4;stroke-dasharray:none;stroke-opacity:1"
       id="circle45528"
       cx="-5.4466562"
       cy="2.2556064"
       r="1.719785" />
    <path
       id="path45530"
       style="fill:none;stroke:#000000;stroke-width:0.396875;stroke-linecap:round;stroke-linejoin:round;stroke-miterlimit:4;stroke-dasharray:none;stroke-opacity:1"
       d="m -5.9941922,2.4205198 h 1.0950721 M -6.041804,2.8987931 c 0,-0.9565467 0,-1.4348201 0.5951479,-1.4348201 0.595148,0 0.595148,0.4782734 0.595148,1.4348201" />
    <path
       style="fill:none;fill-rule:evenodd;stroke:#000000;stroke-width:0.52918;stroke-linecap:round;stroke-miterlimit:4;stroke-dasharray:none;stroke-opacity:1"
       d="m -5.0590828,5.0053092 c 0.3120626,0.51 0.8666117,0.8213222 1.46451,0.8221721 0.9498163,3.7e-6 1.7197954,-0.7699754 1.7197917,-1.7197917 -2.006e-4,-0.5983475 -0.3113831,-1.1535833 -0.8216554,-1.4660603"
       id="path45532" />
    <path
       style="fill:none;stroke:#000000;stroke-width:0.396875;stroke-linecap:round;stroke-linejoin:round;stroke-miterlimit:4;stroke-dasharray:none;stroke-opacity:1"
       d="m -3.96875,4.7625 1.0289876,-1.0289877 -0.280633,-0.280633"
       id="path45534"
       sodipodi:nodetypes="ccc" />
  </g>
</svg>
